<?xml version="1.0" encoding="UTF-8"?><svg xmlns="http://www.w3.org/2000/svg" xmlns:xlink="http://www.w3.org/1999/xlink" width="375pt" zoomAndPan="magnify" viewBox="0 0 375 374.999991" height="374.999991pt" preserveAspectRatio="xMidYMid meet" version="1.2"><defs><g/><clipPath xml:id="clip1" id="clip1"><path d="M 97.246094 91.929688 L 274.996094 91.929688 L 274.996094 292.929688 L 97.246094 292.929688 Z M 97.246094 91.929688 "/></clipPath></defs><g xml:id="surface1" id="surface1"><g clip-rule="nonzero" clip-path="url(#clip1)"><path style=" stroke:none;fill-rule:nonzero;fill:rgb(97.24884%,97.648621%,97.648621%);fill-opacity:1;" d="M 97.246094 91.929688 L 274.996094 91.929688 L 274.996094 292.929688 L 97.246094 292.929688 Z M 97.246094 91.929688 "/></g><g style="fill:rgb(43.528748%,44.709778%,52.549744%);fill-opacity:1;"><g transform="translate(128.099805, 227.047561)"><path style="stroke:none;" d="M 36.71875 -55.4375 L 47.046875 -55.4375 L 39.6875 0 L 28.953125 0 L 25.6875 -21.921875 L 23.921875 -37.203125 C 23.492188 -31.273438 22.957031 -26.179688 22.3125 -21.921875 L 18.953125 0 L 7.515625 0 L 0.40625 -55.4375 L 10.875 -55.4375 C 12.90625 -40.875 14.023438 -32.363281 14.234375 -29.90625 C 14.453125 -27.457031 14.640625 -24.796875 14.796875 -21.921875 C 15.597656 -29.273438 16.929688 -40.445312 18.796875 -55.4375 L 28.953125 -55.4375 L 32.71875 -22.484375 C 32.988281 -27.816406 33.441406 -32.722656 34.078125 -37.203125 Z M 36.71875 -55.4375 "/></g></g><g style="fill:rgb(43.528748%,44.709778%,52.549744%);fill-opacity:1;"><g transform="translate(173.939582, 227.047561)"><path style="stroke:none;" d="M 24.640625 -42.640625 C 24.640625 -43.597656 24.410156 -44.328125 23.953125 -44.828125 C 23.503906 -45.335938 22.640625 -45.59375 21.359375 -45.59375 L 15.59375 -45.59375 L 15.59375 -10.3125 L 21.359375 -10.3125 C 23.546875 -10.3125 24.640625 -11.539062 24.640625 -14 Z M 3.59375 -55.4375 L 23.046875 -55.4375 C 27.359375 -55.4375 30.703125 -54.394531 33.078125 -52.3125 C 35.453125 -50.238281 36.640625 -47.175781 36.640625 -43.125 L 36.640625 -13.046875 C 36.640625 -4.347656 32.347656 0 23.765625 0 L 3.59375 0 Z M 3.59375 -55.4375 "/></g></g><g style="fill:rgb(43.528748%,44.709778%,52.549744%);fill-opacity:1;"><g transform="translate(211.779397, 227.047561)"><path style="stroke:none;" d="M 1.59375 -42.484375 C 1.59375 -46.742188 3.03125 -50.035156 5.90625 -52.359375 C 8.789062 -54.679688 12.941406 -55.84375 18.359375 -55.84375 C 23.773438 -55.84375 27.816406 -55.28125 30.484375 -54.15625 L 30.484375 -42.640625 C 27.222656 -44.023438 23.515625 -44.71875 19.359375 -44.71875 C 17.222656 -44.71875 15.78125 -44.382812 15.03125 -43.71875 C 14.289062 -43.050781 13.921875 -42.101562 13.921875 -40.875 L 13.921875 -39.6875 C 13.921875 -38.1875 14.171875 -37.078125 14.671875 -36.359375 C 15.179688 -35.640625 16.289062 -34.828125 18 -33.921875 L 27.125 -28.796875 C 31.5 -26.398438 33.6875 -22.800781 33.6875 -18 L 33.6875 -13.046875 C 33.6875 -8.722656 32.082031 -5.398438 28.875 -3.078125 C 25.675781 -0.753906 21.179688 0.40625 15.390625 0.40625 C 9.609375 0.40625 5.25 -0.207031 2.3125 -1.4375 L 2.3125 -13.046875 C 5.945312 -11.492188 10.054688 -10.71875 14.640625 -10.71875 C 19.222656 -10.71875 21.515625 -12.023438 21.515625 -14.640625 L 21.515625 -15.84375 C 21.515625 -17.070312 21.257812 -17.988281 20.75 -18.59375 C 20.25 -19.207031 19.304688 -19.890625 17.921875 -20.640625 L 9.359375 -25.28125 C 4.179688 -28.15625 1.59375 -32.207031 1.59375 -37.4375 Z M 1.59375 -42.484375 "/></g></g><g style="fill:rgb(23.139954%,69.018555%,63.529968%);fill-opacity:1;"><g transform="translate(143.043174, 263.897649)"><path style="stroke:none;" d="M 7.9375 -14.921875 L 7.9375 -13.09375 L 5.109375 -13.09375 L 5.109375 0 L 3.015625 0 L 3.015625 -13.09375 L 0.171875 -13.09375 L 0.171875 -14.921875 Z M 7.9375 -14.921875 "/></g></g><g style="fill:rgb(23.139954%,69.018555%,63.529968%);fill-opacity:1;"><g transform="translate(151.578276, 263.897649)"><path style="stroke:none;" d="M 7.65625 -14.921875 L 9.765625 -14.921875 L 9.765625 0 L 7.65625 0 L 7.65625 -6.40625 L 3.453125 -6.40625 L 3.453125 0 L 1.359375 0 L 1.359375 -14.921875 L 3.453125 -14.921875 L 3.453125 -8.25 L 7.65625 -8.25 Z M 7.65625 -14.921875 "/></g></g><g style="fill:rgb(23.139954%,69.018555%,63.529968%);fill-opacity:1;"><g transform="translate(163.149041, 263.897649)"><path style="stroke:none;" d="M 1.359375 -14.921875 L 8.15625 -14.921875 L 8.15625 -13.09375 L 3.4375 -13.09375 L 3.4375 -8.453125 L 7.546875 -8.453125 L 7.546875 -6.625 L 3.4375 -6.625 L 3.4375 -1.796875 L 8.15625 -1.796875 L 8.15625 0 L 1.359375 0 Z M 1.359375 -14.921875 "/></g></g><g style="fill:rgb(23.139954%,69.018555%,63.529968%);fill-opacity:1;"><g transform="translate(172.476056, 263.897649)"><path style="stroke:none;" d=""/></g></g><g style="fill:rgb(23.139954%,69.018555%,63.529968%);fill-opacity:1;"><g transform="translate(177.051599, 263.897649)"><path style="stroke:none;" d="M 7.21875 -11.5 C 7.21875 -12.613281 6.640625 -13.171875 5.484375 -13.171875 L 3.4375 -13.171875 L 3.4375 -1.796875 L 5.484375 -1.796875 C 6.640625 -1.796875 7.21875 -2.378906 7.21875 -3.546875 Z M 1.359375 -14.921875 L 5.671875 -14.921875 C 6.847656 -14.921875 7.742188 -14.625 8.359375 -14.03125 C 8.972656 -13.445312 9.28125 -12.628906 9.28125 -11.578125 L 9.28125 -3.4375 C 9.28125 -2.363281 8.988281 -1.519531 8.40625 -0.90625 C 7.832031 -0.300781 6.953125 0 5.765625 0 L 1.359375 0 Z M 1.359375 -14.921875 "/></g></g><g style="fill:rgb(23.139954%,69.018555%,63.529968%);fill-opacity:1;"><g transform="translate(187.896443, 263.897649)"><path style="stroke:none;" d="M 3.4375 -5.8125 L 3.4375 0 L 1.359375 0 L 1.359375 -14.921875 L 5.375 -14.921875 C 6.539062 -14.921875 7.4375 -14.625 8.0625 -14.03125 C 8.6875 -13.445312 9 -12.632812 9 -11.59375 L 9 -9.21875 C 9 -7.59375 8.375 -6.546875 7.125 -6.078125 L 9.5 0 L 7.21875 0 L 5.078125 -5.8125 Z M 3.4375 -13.109375 L 3.4375 -7.546875 L 5.1875 -7.546875 C 5.800781 -7.546875 6.242188 -7.679688 6.515625 -7.953125 C 6.796875 -8.234375 6.9375 -8.660156 6.9375 -9.234375 L 6.9375 -11.46875 C 6.9375 -12.5625 6.351562 -13.109375 5.1875 -13.109375 Z M 3.4375 -13.109375 "/></g></g><g style="fill:rgb(23.139954%,69.018555%,63.529968%);fill-opacity:1;"><g transform="translate(198.543309, 263.897649)"><path style="stroke:none;" d="M 1.359375 -14.921875 L 8.15625 -14.921875 L 8.15625 -13.09375 L 3.4375 -13.09375 L 3.4375 -8.453125 L 7.546875 -8.453125 L 7.546875 -6.625 L 3.4375 -6.625 L 3.4375 -1.796875 L 8.15625 -1.796875 L 8.15625 0 L 1.359375 0 Z M 1.359375 -14.921875 "/></g></g><g style="fill:rgb(23.139954%,69.018555%,63.529968%);fill-opacity:1;"><g transform="translate(207.870322, 263.897649)"><path style="stroke:none;" d="M 7.640625 0 L 6.8125 -3.953125 L 3.125 -3.953125 L 2.3125 0 L 0.28125 0 L 3.546875 -14.921875 L 6.453125 -14.921875 L 9.65625 0 Z M 3.46875 -5.734375 L 6.453125 -5.734375 L 4.953125 -12.984375 Z M 3.46875 -5.734375 "/></g></g><g style="fill:rgb(23.139954%,69.018555%,63.529968%);fill-opacity:1;"><g transform="translate(218.275217, 263.897649)"><path style="stroke:none;" d="M 12.3125 -14.921875 L 12.3125 0 L 10.34375 0 L 10.34375 -7.0625 C 10.34375 -8.570312 10.414062 -10.046875 10.5625 -11.484375 L 7.78125 -3.921875 L 5.875 -3.921875 L 3.109375 -11.484375 C 3.253906 -10.117188 3.328125 -8.648438 3.328125 -7.078125 L 3.328125 0 L 1.359375 0 L 1.359375 -14.921875 L 3.671875 -14.921875 L 6.84375 -6.078125 L 10.015625 -14.921875 Z M 12.3125 -14.921875 "/></g></g><path style=" stroke:none;fill-rule:nonzero;fill:rgb(78.819275%,88.62915%,39.608765%);fill-opacity:1;" d="M 187.457031 130.578125 L 187.417969 120.214844 L 175.554688 126.929688 L 166.550781 132.03125 C 164.914062 133.105469 163.851562 134.855469 163.648438 136.792969 L 163.652344 138.214844 L 163.695312 148.578125 L 175.558594 141.863281 L 184.5625 136.761719 C 186.199219 135.691406 187.261719 133.9375 187.464844 132 L 187.457031 130.578125 "/><path style=" stroke:none;fill-rule:nonzero;fill:rgb(78.819275%,88.62915%,39.608765%);fill-opacity:1;" d="M 187.796875 130.578125 L 187.839844 120.214844 L 199.699219 126.929688 L 208.707031 132.03125 C 210.339844 133.105469 211.40625 134.855469 211.605469 136.792969 L 211.601562 138.214844 L 211.558594 148.578125 L 199.699219 141.863281 L 190.691406 136.761719 C 189.054688 135.691406 187.992188 133.9375 187.789062 132 L 187.796875 130.578125 "/><path style=" stroke:none;fill-rule:nonzero;fill:rgb(0%,29.019165%,67.83905%);fill-opacity:1;" d="M 191.046875 113.207031 L 201.277344 107.414062 L 214.753906 99.78125 L 214.800781 111.554688 L 214.808594 113.171875 C 214.578125 115.371094 213.371094 117.363281 211.511719 118.578125 L 201.277344 124.375 L 187.804688 132.003906 L 187.757812 120.234375 L 187.75 118.613281 C 187.980469 116.414062 189.1875 114.421875 191.046875 113.207031 "/><path style=" stroke:none;fill-rule:nonzero;fill:rgb(0%,29.019165%,67.83905%);fill-opacity:1;" d="M 184.167969 113.207031 L 173.9375 107.414062 L 160.460938 99.78125 L 160.414062 111.554688 L 160.40625 113.171875 C 160.636719 115.371094 161.84375 117.363281 163.703125 118.578125 L 173.933594 124.375 L 187.410156 132.003906 L 187.457031 120.234375 L 187.464844 118.613281 C 187.234375 116.414062 186.027344 114.421875 184.167969 113.207031 "/></g></svg>